<svg xmlns="http://www.w3.org/2000/svg" xmlns:xlink="http://www.w3.org/1999/xlink" version="1.1" x="0px" y="0px" viewBox="0 0 56.7 70.875" enable-background="new 0 0 56.7 56.7" xml:space="preserve"><path fill="none" stroke="#000000" stroke-width="2" stroke-linecap="round" stroke-linejoin="round" stroke-miterlimit="10" d="  M11.3,33c0-1.6,1.3-2.8,2.8-2.8h28.3c1.6,0,2.8,1.3,2.8,2.8H11.3z"/><path fill="none" stroke="#000000" stroke-width="2" stroke-linecap="round" stroke-linejoin="round" stroke-miterlimit="10" d="  M46.8,11.7c2.3,0,4.3,1.9,4.3,4.3v12.8c0,2.3-1.9,4.3-4.3,4.3H9.9c-2.3,0-4.3-1.9-4.3-4.3V15.9c0-2.3,1.9-4.3,4.3-4.3L46.8,11.7  L46.8,11.7z"/><path fill="none" stroke="#000000" stroke-width="2" stroke-linecap="round" stroke-linejoin="round" stroke-miterlimit="10" d="  M14.2,16.7h28.3H14.2z"/><path fill="none" stroke="#000000" stroke-width="2" stroke-linecap="round" stroke-linejoin="round" stroke-miterlimit="10" d="  M14.2,20.9h28.3H14.2z"/><path fill="none" stroke="#000000" stroke-width="2" stroke-linecap="round" stroke-linejoin="round" stroke-miterlimit="10" d="  M14.2,25.2h28.3H14.2z"/><path fill="none" stroke="#000000" stroke-width="2" stroke-linecap="round" stroke-linejoin="round" stroke-miterlimit="10" d="  M15.1,45c0.5-0.5,0.9-1.3,0.9-2.1s-0.3-1.6-0.9-2.1c-0.5-0.5-0.9-1.3-0.9-2.1s0.3-1.6,0.9-2.1c-0.6,0.5-0.9,1.3-0.9,2.1  s0.4,1.6,0.9,2.1c0.6,0.5,0.9,1.3,0.9,2.1S15.6,44.5,15.1,45z"/><path fill="none" stroke="#000000" stroke-width="2" stroke-linecap="round" stroke-linejoin="round" stroke-miterlimit="10" d="  M20.7,45c0.5-0.5,0.9-1.3,0.9-2.1s-0.3-1.6-0.9-2.1c-0.5-0.5-0.9-1.3-0.9-2.1s0.3-1.6,0.9-2.1c-0.6,0.5-0.9,1.3-0.9,2.1  s0.4,1.6,0.9,2.1c0.6,0.5,0.9,1.3,0.9,2.1S21.2,44.5,20.7,45z"/><path fill="none" stroke="#000000" stroke-width="2" stroke-linecap="round" stroke-linejoin="round" stroke-miterlimit="10" d="  M26.4,45c0.5-0.5,0.9-1.3,0.9-2.1s-0.3-1.6-0.9-2.1c-0.5-0.5-0.9-1.3-0.9-2.1s0.3-1.6,0.9-2.1c-0.6,0.5-0.9,1.3-0.9,2.1  s0.4,1.6,0.9,2.1c0.6,0.5,0.9,1.3,0.9,2.1S26.9,44.5,26.4,45z"/><path fill="none" stroke="#000000" stroke-width="2" stroke-linecap="round" stroke-linejoin="round" stroke-miterlimit="10" d="  M32.1,36.6c-0.6,0.5-0.9,1.3-0.9,2.1s0.4,1.6,0.9,2.1c0.6,0.5,0.9,1.3,0.9,2.1s-0.4,1.6-0.9,2.1c0.5-0.5,0.9-1.3,0.9-2.1  s-0.3-1.6-0.9-2.1c-0.5-0.5-0.9-1.3-0.9-2.1S31.5,37.1,32.1,36.6z"/><g><path fill="none" stroke="#000000" stroke-width="2" stroke-linecap="round" stroke-linejoin="round" stroke-miterlimit="10" d="   M39.5,37.2v7.1V37.2z"/><path fill="none" stroke="#000000" stroke-width="2" stroke-linecap="round" stroke-linejoin="round" stroke-miterlimit="10" d="   M36.4,42.5l6.1-3.5L36.4,42.5z"/><path fill="none" stroke="#000000" stroke-width="2" stroke-linecap="round" stroke-linejoin="round" stroke-miterlimit="10" d="   M42.5,42.5L36.4,39L42.5,42.5z"/></g></svg>